<?xml version="1.0" encoding="UTF-8" standalone="no"?>
<!-- Created with Inkscape (http://www.inkscape.org/) -->

<svg
   xmlns:dc="http://purl.org/dc/elements/1.1/"
   xmlns:cc="http://creativecommons.org/ns#"
   xmlns:rdf="http://www.w3.org/1999/02/22-rdf-syntax-ns#"
   xmlns:svg="http://www.w3.org/2000/svg"
   xmlns="http://www.w3.org/2000/svg"
   xmlns:sodipodi="http://sodipodi.sourceforge.net/DTD/sodipodi-0.dtd"
   xmlns:inkscape="http://www.inkscape.org/namespaces/inkscape"
   id="svg3004"
   version="1.1"
   inkscape:version="0.48.4 r9939"
   width="765"
   height="990"
   xml:space="preserve"
   sodipodi:docname="strmtx.pdf"><metadata
     id="metadata3010"><rdf:RDF><cc:Work
         rdf:about=""><dc:format>image/svg+xml</dc:format><dc:type
           rdf:resource="http://purl.org/dc/dcmitype/StillImage" /><dc:title></dc:title></cc:Work></rdf:RDF></metadata><defs
     id="defs3008"><clipPath
       clipPathUnits="userSpaceOnUse"
       id="clipPath3018"><path
         d="m 56.7,721.2 498.5,0 0,14.1 -498.5,0 0,-14.1 z"
         clip-rule="evenodd"
         id="path3020" /></clipPath><clipPath
       clipPathUnits="userSpaceOnUse"
       id="clipPath3036"><path
         d="m 56.7,56.7 498.5,0 0,14.1 -498.5,0 0,-14.1 z"
         clip-rule="evenodd"
         id="path3038" /></clipPath><clipPath
       clipPathUnits="userSpaceOnUse"
       id="clipPath3060"><path
         d="m 61.2,399 416.1,0 0,302.3 -416.1,0 0,-302.3 z"
         clip-rule="evenodd"
         id="path3062" /></clipPath></defs><sodipodi:namedview
     pagecolor="#ffffff"
     bordercolor="#666666"
     borderopacity="1"
     objecttolerance="10"
     gridtolerance="10"
     guidetolerance="10"
     inkscape:pageopacity="0"
     inkscape:pageshadow="2"
     inkscape:window-width="1600"
     inkscape:window-height="849"
     id="namedview3006"
     showgrid="false"
     inkscape:zoom="0.95852253"
     inkscape:cx="355.62565"
     inkscape:cy="837.57799"
     inkscape:window-x="0"
     inkscape:window-y="0"
     inkscape:window-maximized="1"
     inkscape:current-layer="g3012" /><g
     id="g3012"
     inkscape:groupmode="layer"
     inkscape:label="strmtx"
     transform="matrix(1.25,0,0,-1.25,0,990)"><g
       id="g3056"
       transform="translate(-73.6,-1.6)"><g
         id="g3058"
         clip-path="url(#clipPath3060)"><g
           id="g3064"><path
             d="m 93.1,582.5 291.5,0"
             style="fill:none;stroke:#000000;stroke-width:3.12301993;stroke-linecap:butt;stroke-linejoin:miter;stroke-miterlimit:7.66129017;stroke-opacity:1;stroke-dasharray:none"
             id="path3066"
             inkscape:connector-curvature="0" /></g><g
           id="g3068"><path
             d="m 130.7,510.3 c 132.4,52 58.2,39.7 37.2,30.4 -96.2,-42.8 167.6,-11.6 80,13.5 -18.2,5.2 -8.8,-24 4.8,-47"
             style="fill:none;stroke:#000000;stroke-width:3.12301993;stroke-linecap:butt;stroke-linejoin:miter;stroke-miterlimit:7.66129017;stroke-opacity:1;stroke-dasharray:none"
             id="path3070"
             inkscape:connector-curvature="0" /></g><path
           d="m 137.8,582 0,0 c 0,-0.6 -0.1,-1.1 -0.4,-1.6 -0.3,-0.5 -0.7,-0.9 -1.2,-1.2 -0.5,-0.3 -1,-0.4 -1.6,-0.4 -0.6,0 -1.1,0.1 -1.7,0.4 -0.5,0.3 -0.9,0.7 -1.2,1.2 -0.3,0.5 -0.4,1 -0.4,1.6 l 0,0 c 0,0.6 0.1,1.1 0.4,1.7 0.3,0.5 0.7,0.9 1.2,1.1 0.6,0.4 1.1,0.5 1.7,0.5 0.6,0 1.1,-0.1 1.6,-0.5 0.5,-0.2 0.9,-0.6 1.2,-1.1 0.3,-0.6 0.4,-1.1 0.4,-1.7 l 0,0 0,0 z"
           style="fill:#ff0000;fill-opacity:1;fill-rule:evenodd;stroke:none"
           id="path3072"
           inkscape:connector-curvature="0" /><g
           id="g3074"><path
             d="m 137.8,582 0,0 c 0,-0.6 -0.1,-1.1 -0.4,-1.6 -0.3,-0.5 -0.7,-0.9 -1.2,-1.2 -0.5,-0.3 -1,-0.4 -1.6,-0.4 -0.6,0 -1.1,0.1 -1.7,0.4 -0.5,0.3 -0.9,0.7 -1.2,1.2 -0.3,0.5 -0.4,1 -0.4,1.6 l 0,0 c 0,0.6 0.1,1.1 0.4,1.7 0.3,0.5 0.7,0.9 1.2,1.1 0.6,0.4 1.1,0.5 1.7,0.5 0.6,0 1.1,-0.1 1.6,-0.5 0.5,-0.2 0.9,-0.6 1.2,-1.1 0.3,-0.6 0.4,-1.1 0.4,-1.7 l 0,0 0,0 z"
             style="fill:none;stroke:#000000;stroke-width:0.53568;stroke-linecap:butt;stroke-linejoin:miter;stroke-miterlimit:7.66129017;stroke-opacity:1;stroke-dasharray:none"
             id="path3076"
             inkscape:connector-curvature="0" /></g><path
           d="m 215.2,582.7 0,0 c 0,-0.6 -0.1,-1.1 -0.4,-1.7 -0.3,-0.5 -0.7,-0.9 -1.2,-1.1 -0.5,-0.4 -1,-0.5 -1.6,-0.5 -0.6,0 -1.1,0.1 -1.6,0.5 -0.6,0.2 -0.9,0.6 -1.2,1.1 -0.3,0.6 -0.5,1.1 -0.5,1.7 l 0,0 c 0,0.6 0.2,1.1 0.5,1.6 0.3,0.5 0.6,0.9 1.2,1.2 0.5,0.3 1,0.4 1.6,0.4 0.6,0 1.1,-0.1 1.6,-0.4 0.5,-0.3 0.9,-0.7 1.2,-1.2 0.3,-0.5 0.4,-1 0.4,-1.6 l 0,0 0,0 z"
           style="fill:#ff0000;fill-opacity:1;fill-rule:evenodd;stroke:none"
           id="path3078"
           inkscape:connector-curvature="0" /><g
           id="g3080"><path
             d="m 215.2,582.7 0,0 c 0,-0.6 -0.1,-1.1 -0.4,-1.7 -0.3,-0.5 -0.7,-0.9 -1.2,-1.1 -0.5,-0.4 -1,-0.5 -1.6,-0.5 -0.6,0 -1.1,0.1 -1.6,0.5 -0.6,0.2 -0.9,0.6 -1.2,1.1 -0.3,0.6 -0.5,1.1 -0.5,1.7 l 0,0 c 0,0.6 0.2,1.1 0.5,1.6 0.3,0.5 0.6,0.9 1.2,1.2 0.5,0.3 1,0.4 1.6,0.4 0.6,0 1.1,-0.1 1.6,-0.4 0.5,-0.3 0.9,-0.7 1.2,-1.2 0.3,-0.5 0.4,-1 0.4,-1.6 l 0,0 0,0 z"
             style="fill:none;stroke:#000000;stroke-width:0.53568;stroke-linecap:butt;stroke-linejoin:miter;stroke-miterlimit:7.66129017;stroke-opacity:1;stroke-dasharray:none"
             id="path3082"
             inkscape:connector-curvature="0" /></g><path
           d="m 306.1,583.2 0,0 c 0,-0.6 -0.1,-1.1 -0.4,-1.6 -0.3,-0.5 -0.7,-0.9 -1.2,-1.2 -0.5,-0.3 -1.1,-0.4 -1.6,-0.4 -0.6,0 -1.2,0.1 -1.7,0.4 -0.5,0.3 -0.9,0.7 -1.2,1.2 -0.3,0.5 -0.4,1 -0.4,1.6 l 0,0 c 0,0.7 0.1,1.1 0.4,1.7 0.3,0.5 0.7,0.9 1.2,1.2 0.5,0.2 1.1,0.4 1.7,0.4 0.5,0 1.1,-0.2 1.6,-0.4 0.5,-0.3 0.9,-0.7 1.2,-1.2 0.3,-0.6 0.4,-1 0.4,-1.7 l 0,0 0,0 z"
           style="fill:#ff0000;fill-opacity:1;fill-rule:evenodd;stroke:none"
           id="path3084"
           inkscape:connector-curvature="0" /><g
           id="g3086"><path
             d="m 306.1,583.2 0,0 c 0,-0.6 -0.1,-1.1 -0.4,-1.6 -0.3,-0.5 -0.7,-0.9 -1.2,-1.2 -0.5,-0.3 -1.1,-0.4 -1.6,-0.4 -0.6,0 -1.2,0.1 -1.7,0.4 -0.5,0.3 -0.9,0.7 -1.2,1.2 -0.3,0.5 -0.4,1 -0.4,1.6 l 0,0 c 0,0.7 0.1,1.1 0.4,1.7 0.3,0.5 0.7,0.9 1.2,1.2 0.5,0.2 1.1,0.4 1.7,0.4 0.5,0 1.1,-0.2 1.6,-0.4 0.5,-0.3 0.9,-0.7 1.2,-1.2 0.3,-0.6 0.4,-1 0.4,-1.7 l 0,0 0,0 z"
             style="fill:none;stroke:#000000;stroke-width:0.53568;stroke-linecap:butt;stroke-linejoin:miter;stroke-miterlimit:7.66129017;stroke-opacity:1;stroke-dasharray:none"
             id="path3088"
             inkscape:connector-curvature="0" /></g><path
           d="m 352.1,583.2 0,0 c 0,-0.6 -0.2,-1.1 -0.5,-1.6 -0.3,-0.5 -0.6,-0.9 -1.2,-1.2 -0.5,-0.3 -1,-0.4 -1.6,-0.4 -0.6,0 -1.1,0.1 -1.6,0.4 -0.6,0.3 -0.9,0.7 -1.2,1.2 -0.3,0.5 -0.5,1 -0.5,1.6 l 0,0 c 0,0.7 0.2,1.1 0.5,1.7 0.3,0.5 0.6,0.9 1.2,1.2 0.5,0.2 1,0.4 1.6,0.4 0.6,0 1.1,-0.2 1.6,-0.4 0.6,-0.3 0.9,-0.7 1.2,-1.2 0.3,-0.6 0.5,-1 0.5,-1.7 l 0,0 0,0 z"
           style="fill:#ff0000;fill-opacity:1;fill-rule:evenodd;stroke:none"
           id="path3090"
           inkscape:connector-curvature="0" /><g
           id="g3092"><path
             d="m 352.1,583.2 0,0 c 0,-0.6 -0.2,-1.1 -0.5,-1.6 -0.3,-0.5 -0.6,-0.9 -1.2,-1.2 -0.5,-0.3 -1,-0.4 -1.6,-0.4 -0.6,0 -1.1,0.1 -1.6,0.4 -0.6,0.3 -0.9,0.7 -1.2,1.2 -0.3,0.5 -0.5,1 -0.5,1.6 l 0,0 c 0,0.7 0.2,1.1 0.5,1.7 0.3,0.5 0.6,0.9 1.2,1.2 0.5,0.2 1,0.4 1.6,0.4 0.6,0 1.1,-0.2 1.6,-0.4 0.6,-0.3 0.9,-0.7 1.2,-1.2 0.3,-0.6 0.5,-1 0.5,-1.7 l 0,0 0,0 z"
             style="fill:none;stroke:#000000;stroke-width:0.53568;stroke-linecap:butt;stroke-linejoin:miter;stroke-miterlimit:7.66129017;stroke-opacity:1;stroke-dasharray:none"
             id="path3094"
             inkscape:connector-curvature="0" /></g><g
           id="g3096"><text
             transform="matrix(1,0,0,-0.99705868,209.8,588.8)"
             id="text3098"><tspan
               style="font-size:9.62831974px;font-variant:normal;font-weight:normal;writing-mode:lr-tb;fill:#000000;fill-opacity:1;fill-rule:nonzero;stroke:none;font-family:DejaVu Sans;-inkscape-font-specification:DejaVuSans"
               x="0"
               y="0"
               id="tspan3100">b</tspan></text>
</g><g
           id="g3102"><text
             transform="matrix(0.87278,0,0,-1,131.9,588.1)"
             id="text3104"><tspan
               style="font-size:9.60000038px;font-variant:normal;font-weight:normal;writing-mode:lr-tb;fill:#000000;fill-opacity:1;fill-rule:nonzero;stroke:none;font-family:DejaVu Sans;-inkscape-font-specification:DejaVuSans"
               x="0"
               y="0"
               id="tspan3106">a</tspan></text>
</g><g
           id="g3108"><text
             transform="matrix(1,0,0,-0.99705868,300.1,588.8)"
             id="text3110"><tspan
               style="font-size:9.62831974px;font-variant:normal;font-weight:normal;writing-mode:lr-tb;fill:#000000;fill-opacity:1;fill-rule:nonzero;stroke:none;font-family:DejaVu Sans;-inkscape-font-specification:DejaVuSans"
               x="0"
               y="0"
               id="tspan3112">c</tspan></text>
</g><g
           id="g3114"><text
             transform="matrix(1,0,0,-0.99705868,345.3,589.1)"
             id="text3116"><tspan
               style="font-size:9.62831974px;font-variant:normal;font-weight:normal;writing-mode:lr-tb;fill:#000000;fill-opacity:1;fill-rule:nonzero;stroke:none;font-family:DejaVu Sans;-inkscape-font-specification:DejaVuSans"
               x="0"
               y="0"
               id="tspan3118">d</tspan></text>
</g><path
           d="m 97.7,582.8 0,0 c 0,-0.6 -0.2,-1.1 -0.5,-1.7 -0.3,-0.5 -0.7,-0.8 -1.2,-1.2 -0.5,-0.2 -1,-0.4 -1.6,-0.4 -0.6,0 -1.1,0.2 -1.6,0.4 -0.6,0.4 -0.9,0.7 -1.2,1.2 -0.3,0.6 -0.5,1.1 -0.5,1.7 l 0,0 c 0,0.6 0.2,1.1 0.5,1.6 0.3,0.5 0.6,0.9 1.2,1.2 0.5,0.3 1,0.4 1.6,0.4 0.6,0 1.1,-0.1 1.6,-0.4 0.5,-0.3 0.9,-0.7 1.2,-1.2 0.3,-0.5 0.5,-1 0.5,-1.6 l 0,0 0,0 z"
           style="fill:#ff0000;fill-opacity:1;fill-rule:evenodd;stroke:none"
           id="path3120"
           inkscape:connector-curvature="0" /><g
           id="g3122"><path
             d="m 97.7,582.8 0,0 c 0,-0.6 -0.2,-1.1 -0.5,-1.7 -0.3,-0.5 -0.7,-0.8 -1.2,-1.2 -0.5,-0.2 -1,-0.4 -1.6,-0.4 -0.6,0 -1.1,0.2 -1.6,0.4 -0.6,0.4 -0.9,0.7 -1.2,1.2 -0.3,0.6 -0.5,1.1 -0.5,1.7 l 0,0 c 0,0.6 0.2,1.1 0.5,1.6 0.3,0.5 0.6,0.9 1.2,1.2 0.5,0.3 1,0.4 1.6,0.4 0.6,0 1.1,-0.1 1.6,-0.4 0.5,-0.3 0.9,-0.7 1.2,-1.2 0.3,-0.5 0.5,-1 0.5,-1.6 l 0,0 0,0 z"
             style="fill:none;stroke:#000000;stroke-width:0.53568;stroke-linecap:butt;stroke-linejoin:miter;stroke-miterlimit:7.66129017;stroke-opacity:1;stroke-dasharray:none"
             id="path3124"
             inkscape:connector-curvature="0" /></g><path
           d="m 387.3,582.8 0,0 c 0,-0.6 -0.1,-1.1 -0.4,-1.6 -0.3,-0.5 -0.7,-0.9 -1.2,-1.2 -0.5,-0.3 -1,-0.4 -1.6,-0.4 -0.6,0 -1.1,0.1 -1.6,0.4 -0.6,0.3 -1,0.7 -1.2,1.2 -0.4,0.5 -0.5,1 -0.5,1.6 l 0,0 c 0,0.6 0.1,1.1 0.5,1.7 0.2,0.5 0.6,0.9 1.2,1.2 0.5,0.2 1,0.4 1.6,0.4 0.6,0 1.1,-0.2 1.6,-0.4 0.5,-0.3 0.9,-0.7 1.2,-1.2 0.3,-0.6 0.4,-1.1 0.4,-1.7 l 0,0 0,0 z"
           style="fill:#ff0000;fill-opacity:1;fill-rule:evenodd;stroke:none"
           id="path3126"
           inkscape:connector-curvature="0" /><g
           id="g3128"><path
             d="m 387.3,582.8 0,0 c 0,-0.6 -0.1,-1.1 -0.4,-1.6 -0.3,-0.5 -0.7,-0.9 -1.2,-1.2 -0.5,-0.3 -1,-0.4 -1.6,-0.4 -0.6,0 -1.1,0.1 -1.6,0.4 -0.6,0.3 -1,0.7 -1.2,1.2 -0.4,0.5 -0.5,1 -0.5,1.6 l 0,0 c 0,0.6 0.1,1.1 0.5,1.7 0.2,0.5 0.6,0.9 1.2,1.2 0.5,0.2 1,0.4 1.6,0.4 0.6,0 1.1,-0.2 1.6,-0.4 0.5,-0.3 0.9,-0.7 1.2,-1.2 0.3,-0.6 0.4,-1.1 0.4,-1.7 l 0,0 0,0 z"
             style="fill:none;stroke:#000000;stroke-width:0.53568;stroke-linecap:butt;stroke-linejoin:miter;stroke-miterlimit:7.66129017;stroke-opacity:1;stroke-dasharray:none"
             id="path3130"
             inkscape:connector-curvature="0" /></g><path
           d="m 255.1,507.4 0,0 c -0.2,-0.5 -0.4,-1 -0.9,-1.4 -0.4,-0.5 -0.8,-0.8 -1.4,-0.9 -0.6,-0.2 -1.1,-0.2 -1.7,0 -0.6,0.1 -1,0.4 -1.5,0.8 -0.4,0.4 -0.7,0.8 -0.8,1.4 -0.2,0.6 -0.2,1.2 -0.1,1.7 l 0,0 c 0.2,0.6 0.4,1.1 0.9,1.5 0.4,0.4 0.8,0.7 1.4,0.9 0.6,0.1 1.1,0.1 1.7,0 0.6,-0.2 1,-0.4 1.5,-0.9 0.4,-0.3 0.7,-0.8 0.8,-1.4 0.2,-0.6 0.2,-1.1 0.1,-1.7 l 0,0 0,0 z"
           style="fill:#ff0000;fill-opacity:1;fill-rule:evenodd;stroke:none"
           id="path3132"
           inkscape:connector-curvature="0" /><g
           id="g3134"><path
             d="m 255.1,507.4 0,0 c -0.2,-0.5 -0.4,-1 -0.9,-1.4 -0.4,-0.5 -0.8,-0.8 -1.4,-0.9 -0.6,-0.2 -1.1,-0.2 -1.7,0 -0.6,0.1 -1,0.4 -1.5,0.8 -0.4,0.4 -0.7,0.8 -0.8,1.4 -0.2,0.6 -0.2,1.2 -0.1,1.7 l 0,0 c 0.2,0.6 0.4,1.1 0.9,1.5 0.4,0.4 0.8,0.7 1.4,0.9 0.6,0.1 1.1,0.1 1.7,0 0.6,-0.2 1,-0.4 1.5,-0.9 0.4,-0.3 0.7,-0.8 0.8,-1.4 0.2,-0.6 0.2,-1.1 0.1,-1.7 l 0,0 0,0 z"
             style="fill:none;stroke:#000000;stroke-width:0.53564;stroke-linecap:butt;stroke-linejoin:miter;stroke-miterlimit:7.66129017;stroke-opacity:1;stroke-dasharray:none"
             id="path3136"
             inkscape:connector-curvature="0" /></g><path
           d="m 133.5,509.8 0,0 c -0.1,-0.6 -0.4,-1.1 -0.8,-1.5 -0.4,-0.4 -0.9,-0.7 -1.5,-0.9 -0.5,-0.1 -1,-0.1 -1.6,0 -0.6,0.1 -1.1,0.4 -1.5,0.8 -0.4,0.4 -0.7,0.9 -0.9,1.5 -0.1,0.5 -0.2,1.1 0,1.6 l 0,0 c 0.2,0.6 0.4,1.1 0.8,1.5 0.4,0.4 0.9,0.7 1.5,0.9 0.6,0.1 1.1,0.1 1.7,0 0.6,-0.1 1,-0.4 1.4,-0.8 0.5,-0.4 0.7,-0.9 0.9,-1.5 0.2,-0.5 0.2,-1.1 0,-1.6 l 0,0 0,0 z"
           style="fill:#ff0000;fill-opacity:1;fill-rule:evenodd;stroke:none"
           id="path3138"
           inkscape:connector-curvature="0" /><g
           id="g3140"><path
             d="m 133.5,509.8 0,0 c -0.1,-0.6 -0.4,-1.1 -0.8,-1.5 -0.4,-0.4 -0.9,-0.7 -1.5,-0.9 -0.5,-0.1 -1,-0.1 -1.6,0 -0.6,0.1 -1.1,0.4 -1.5,0.8 -0.4,0.4 -0.7,0.9 -0.9,1.5 -0.1,0.5 -0.2,1.1 0,1.6 l 0,0 c 0.2,0.6 0.4,1.1 0.8,1.5 0.4,0.4 0.9,0.7 1.5,0.9 0.6,0.1 1.1,0.1 1.7,0 0.6,-0.1 1,-0.4 1.4,-0.8 0.5,-0.4 0.7,-0.9 0.9,-1.5 0.2,-0.5 0.2,-1.1 0,-1.6 l 0,0 0,0 z"
             style="fill:none;stroke:#000000;stroke-width:0.53564;stroke-linecap:butt;stroke-linejoin:miter;stroke-miterlimit:7.66129017;stroke-opacity:1;stroke-dasharray:none"
             id="path3142"
             inkscape:connector-curvature="0" /></g><path
           d="m 160.9,519.7 0,0 c -0.1,-0.6 -0.4,-1 -0.8,-1.5 -0.4,-0.4 -0.9,-0.7 -1.4,-0.8 -0.6,-0.2 -1.2,-0.2 -1.7,-0.1 -0.6,0.2 -1.1,0.4 -1.5,0.8 -0.4,0.5 -0.7,0.9 -0.9,1.5 -0.1,0.6 -0.1,1.1 0,1.7 l 0,0 c 0.1,0.6 0.4,1 0.8,1.4 0.4,0.5 0.9,0.7 1.5,0.9 0.5,0.2 1.1,0.2 1.6,0 0.6,-0.1 1.1,-0.4 1.5,-0.8 0.5,-0.4 0.7,-0.9 0.9,-1.4 0.2,-0.6 0.2,-1.1 0,-1.7 l 0,0 0,0 z"
           style="fill:#ff0000;fill-opacity:1;fill-rule:evenodd;stroke:none"
           id="path3144"
           inkscape:connector-curvature="0" /><g
           id="g3146"><path
             d="m 160.9,519.7 0,0 c -0.1,-0.6 -0.4,-1 -0.8,-1.5 -0.4,-0.4 -0.9,-0.7 -1.4,-0.8 -0.6,-0.2 -1.2,-0.2 -1.7,-0.1 -0.6,0.2 -1.1,0.4 -1.5,0.8 -0.4,0.5 -0.7,0.9 -0.9,1.5 -0.1,0.6 -0.1,1.1 0,1.7 l 0,0 c 0.1,0.6 0.4,1 0.8,1.4 0.4,0.5 0.9,0.7 1.5,0.9 0.5,0.2 1.1,0.2 1.6,0 0.6,-0.1 1.1,-0.4 1.5,-0.8 0.5,-0.4 0.7,-0.9 0.9,-1.4 0.2,-0.6 0.2,-1.1 0,-1.7 l 0,0 0,0 z"
             style="fill:none;stroke:#000000;stroke-width:0.53564;stroke-linecap:butt;stroke-linejoin:miter;stroke-miterlimit:7.66129017;stroke-opacity:1;stroke-dasharray:none"
             id="path3148"
             inkscape:connector-curvature="0" /></g><path
           d="m 244.9,529.3 0,0 c -0.2,-0.6 -0.5,-1 -0.9,-1.4 -0.4,-0.5 -0.8,-0.7 -1.4,-0.9 -0.6,-0.2 -1.1,-0.2 -1.7,0 -0.6,0.1 -1.1,0.4 -1.5,0.8 -0.4,0.4 -0.7,0.9 -0.8,1.4 -0.2,0.6 -0.2,1.1 -0.1,1.7 l 0,0 c 0.2,0.6 0.4,1 0.9,1.5 0.4,0.4 0.8,0.7 1.4,0.9 0.6,0.1 1.1,0.1 1.7,0 0.6,-0.2 1,-0.4 1.4,-0.8 0.5,-0.5 0.8,-0.9 0.9,-1.5 0.2,-0.6 0.2,-1.1 0.1,-1.7 l 0,0 0,0 z"
           style="fill:#ff0000;fill-opacity:1;fill-rule:evenodd;stroke:none"
           id="path3150"
           inkscape:connector-curvature="0" /><g
           id="g3152"><path
             d="m 244.9,529.3 0,0 c -0.2,-0.6 -0.5,-1 -0.9,-1.4 -0.4,-0.5 -0.8,-0.7 -1.4,-0.9 -0.6,-0.2 -1.1,-0.2 -1.7,0 -0.6,0.1 -1.1,0.4 -1.5,0.8 -0.4,0.4 -0.7,0.9 -0.8,1.4 -0.2,0.6 -0.2,1.1 -0.1,1.7 l 0,0 c 0.2,0.6 0.4,1 0.9,1.5 0.4,0.4 0.8,0.7 1.4,0.9 0.6,0.1 1.1,0.1 1.7,0 0.6,-0.2 1,-0.4 1.4,-0.8 0.5,-0.5 0.8,-0.9 0.9,-1.5 0.2,-0.6 0.2,-1.1 0.1,-1.7 l 0,0 0,0 z"
             style="fill:none;stroke:#000000;stroke-width:0.53564;stroke-linecap:butt;stroke-linejoin:miter;stroke-miterlimit:7.66129017;stroke-opacity:1;stroke-dasharray:none"
             id="path3154"
             inkscape:connector-curvature="0" /></g><g
           id="g3156"><text
             transform="matrix(1,0,0,-0.99705868,90.8,588.9)"
             id="text3158"><tspan
               style="font-size:9.62831974px;font-variant:normal;font-weight:normal;writing-mode:lr-tb;fill:#000000;fill-opacity:1;fill-rule:nonzero;stroke:none;font-family:DejaVu Sans;-inkscape-font-specification:DejaVuSans"
               x="0"
               y="0"
               id="tspan3160">0</tspan></text>
</g><g
           id="g3162"><text
             transform="matrix(1,0,0,-0.99705868,380.8,588.2)"
             id="text3164"><tspan
               style="font-size:9.62831974px;font-variant:normal;font-weight:normal;writing-mode:lr-tb;fill:#000000;fill-opacity:1;fill-rule:nonzero;stroke:none;font-family:DejaVu Sans;-inkscape-font-specification:DejaVuSans"
               x="0"
               y="0"
               id="tspan3166">L</tspan></text>
</g><g
           id="g3168"><text
             transform="matrix(1,0,0,-0.99705868,163.8,496.1)"
             id="text3170"><tspan
               style="font-size:9.62831974px;font-variant:normal;font-weight:normal;writing-mode:lr-tb;fill:#000000;fill-opacity:1;fill-rule:nonzero;stroke:none;font-family:DejaVu Sans;-inkscape-font-specification:DejaVuSans"
               x="0 3.7261598 9.5031519 12.507188 18.640427"
               y="0"
               sodipodi:role="line"
               id="tspan3172">(a,b)</tspan></text>
</g><g
           id="g3174"><text
             transform="matrix(1,0,0,-0.99705868,260.1,519.1)"
             id="text3176"><tspan
               style="font-size:9.62831974px;font-variant:normal;font-weight:normal;writing-mode:lr-tb;fill:#000000;fill-opacity:1;fill-rule:nonzero;stroke:none;font-family:DejaVu Sans;-inkscape-font-specification:DejaVuSans"
               x="0 3.7261598 9.0121078 12.016144 18.149384"
               y="0"
               sodipodi:role="line"
               id="tspan3178">(c,d)</tspan></text>
</g><g
           id="g3180"><path
             d="m 166.8,504.8 -4.7,8.4 -0.3,0.6"
             style="fill:none;stroke:#000000;stroke-width:0.53702998;stroke-linecap:butt;stroke-linejoin:miter;stroke-miterlimit:7.66129017;stroke-opacity:1;stroke-dasharray:none"
             id="path3182"
             inkscape:connector-curvature="0" /></g><path
           d="m 160.8,516 3.5,-2.4 -3.9,-1.9 0.4,4.3 0,0 z"
           style="fill:#000000;fill-opacity:1;fill-rule:evenodd;stroke:none"
           id="path3184"
           inkscape:connector-curvature="0" /><g
           id="g3186"><path
             d="m 160.8,516 3.5,-2.4 -3.9,-1.9 0.4,4.3 0,0 z"
             style="fill:none;stroke:#000000;stroke-width:0.53652;stroke-linecap:butt;stroke-linejoin:miter;stroke-miterlimit:7.66129017;stroke-opacity:1;stroke-dasharray:none"
             id="path3188"
             inkscape:connector-curvature="0" /></g><g
           id="g3190"><path
             d="m 258.9,523.7 -9.1,3.4 -0.5,0.2"
             style="fill:none;stroke:#000000;stroke-width:0.53702998;stroke-linecap:butt;stroke-linejoin:miter;stroke-miterlimit:7.66129017;stroke-opacity:1;stroke-dasharray:none"
             id="path3192"
             inkscape:connector-curvature="0" /></g><path
           d="m 247,528.4 4.3,0.4 -1.8,-3.9 -2.5,3.5 0,0 z"
           style="fill:#000000;fill-opacity:1;fill-rule:evenodd;stroke:none"
           id="path3194"
           inkscape:connector-curvature="0" /><g
           id="g3196"><path
             d="m 247,528.4 4.3,0.4 -1.8,-3.9 -2.5,3.5 0,0 z"
             style="fill:none;stroke:#000000;stroke-width:0.53692001;stroke-linecap:butt;stroke-linejoin:miter;stroke-miterlimit:7.66129017;stroke-opacity:1;stroke-dasharray:none"
             id="path3198"
             inkscape:connector-curvature="0" /></g></g></g><path
       d="m 259.9,548 319.9,0"
       style="fill:none;stroke:#000000;stroke-width:0.1198;stroke-linecap:butt;stroke-linejoin:miter;stroke-miterlimit:10;stroke-opacity:1;stroke-dasharray:none"
       id="path3200"
       inkscape:connector-curvature="0" /><path
       d="m 259.9,535.3 319.9,0"
       style="fill:none;stroke:#000000;stroke-width:0.1198;stroke-linecap:butt;stroke-linejoin:miter;stroke-miterlimit:10;stroke-opacity:1;stroke-dasharray:none"
       id="path3202"
       inkscape:connector-curvature="0" /><path
       d="m 259.9,522.5 319.9,0"
       style="fill:none;stroke:#000000;stroke-width:0.1198;stroke-linecap:butt;stroke-linejoin:miter;stroke-miterlimit:10;stroke-opacity:1;stroke-dasharray:none"
       id="path3204"
       inkscape:connector-curvature="0" /><path
       d="m 259.9,509.7 319.9,0"
       style="fill:none;stroke:#000000;stroke-width:0.1198;stroke-linecap:butt;stroke-linejoin:miter;stroke-miterlimit:10;stroke-opacity:1;stroke-dasharray:none"
       id="path3206"
       inkscape:connector-curvature="0" /><path
       d="m 259.9,496.9 319.9,0"
       style="fill:none;stroke:#000000;stroke-width:0.1198;stroke-linecap:butt;stroke-linejoin:miter;stroke-miterlimit:10;stroke-opacity:1;stroke-dasharray:none"
       id="path3208"
       inkscape:connector-curvature="0" /><path
       d="m 259.9,484.1 319.9,0"
       style="fill:none;stroke:#000000;stroke-width:0.1198;stroke-linecap:butt;stroke-linejoin:miter;stroke-miterlimit:10;stroke-opacity:1;stroke-dasharray:none"
       id="path3210"
       inkscape:connector-curvature="0" /><path
       d="m 259.9,484.1 0,63.9"
       style="fill:none;stroke:#000000;stroke-width:0.1198;stroke-linecap:butt;stroke-linejoin:miter;stroke-miterlimit:10;stroke-opacity:1;stroke-dasharray:none"
       id="path3212"
       inkscape:connector-curvature="0" /><path
       d="m 323.8,484.1 0,63.9"
       style="fill:none;stroke:#000000;stroke-width:0.1198;stroke-linecap:butt;stroke-linejoin:miter;stroke-miterlimit:10;stroke-opacity:1;stroke-dasharray:none"
       id="path3214"
       inkscape:connector-curvature="0" /><path
       d="m 387.8,484.1 0,63.9"
       style="fill:none;stroke:#000000;stroke-width:0.1198;stroke-linecap:butt;stroke-linejoin:miter;stroke-miterlimit:10;stroke-opacity:1;stroke-dasharray:none"
       id="path3216"
       inkscape:connector-curvature="0" /><path
       d="m 451.8,484.1 0,63.9"
       style="fill:none;stroke:#000000;stroke-width:0.1198;stroke-linecap:butt;stroke-linejoin:miter;stroke-miterlimit:10;stroke-opacity:1;stroke-dasharray:none"
       id="path3218"
       inkscape:connector-curvature="0" /><path
       d="m 515.8,484.1 0,63.9"
       style="fill:none;stroke:#000000;stroke-width:0.1198;stroke-linecap:butt;stroke-linejoin:miter;stroke-miterlimit:10;stroke-opacity:1;stroke-dasharray:none"
       id="path3220"
       inkscape:connector-curvature="0" /><path
       d="m 579.8,484.1 0,63.9"
       style="fill:none;stroke:#000000;stroke-width:0.1198;stroke-linecap:butt;stroke-linejoin:miter;stroke-miterlimit:10;stroke-opacity:1;stroke-dasharray:none"
       id="path3222"
       inkscape:connector-curvature="0" /><g
       id="g3224"
       transform="translate(203.2,102.4)"><text
         transform="matrix(1,0,0,-1,57.7,461.6)"
         id="text3226"><tspan
           style="font-size:10.10000038px;font-variant:normal;font-weight:bold;writing-mode:lr-tb;fill:#000000;fill-opacity:1;fill-rule:nonzero;stroke:none;font-family:Liberation Sans;-inkscape-font-specification:LiberationSans-Bold"
           x="0 7.3225002 13.4532 19.5839 22.947201 28.5931 34.238998 37.602299 40.369701 48.8941 54.540001"
           y="0"
           sodipodi:role="line"
           id="tspan3228">Contact Map</tspan></text>
</g><g
       id="g3230"
       transform="translate(203.2,102.4)"><text
         transform="matrix(1,0,0,-1,149.2,435.9)"
         id="text3232"><tspan
           style="font-size:10.10000038px;font-variant:normal;font-weight:bold;writing-mode:lr-tb;fill:#000000;fill-opacity:1;fill-rule:nonzero;stroke:none;font-family:Liberation Sans;-inkscape-font-specification:LiberationSans-Bold"
           x="0"
           y="0"
           id="tspan3234">A</tspan></text>
</g><g
       id="g3236"
       transform="translate(203.2,102.4)"><text
         transform="matrix(1,0,0,-1,213,435.9)"
         id="text3238"><tspan
           style="font-size:10.10000038px;font-variant:normal;font-weight:bold;writing-mode:lr-tb;fill:#000000;fill-opacity:1;fill-rule:nonzero;stroke:none;font-family:Liberation Sans;-inkscape-font-specification:LiberationSans-Bold"
           x="0"
           y="0"
           id="tspan3240">B</tspan></text>
</g><g
       id="g3242"
       transform="translate(203.2,102.4)"><text
         transform="matrix(1,0,0,-1,277,435.9)"
         id="text3244"><tspan
           style="font-size:10.10000038px;font-variant:normal;font-weight:bold;writing-mode:lr-tb;fill:#000000;fill-opacity:1;fill-rule:nonzero;stroke:none;font-family:Liberation Sans;-inkscape-font-specification:LiberationSans-Bold"
           x="0"
           y="0"
           id="tspan3246">C</tspan></text>
</g><g
       id="g3248"
       transform="translate(203.2,102.4)"><text
         transform="matrix(1,0,0,-1,341,435.9)"
         id="text3250"><tspan
           style="font-size:10.10000038px;font-variant:normal;font-weight:bold;writing-mode:lr-tb;fill:#000000;fill-opacity:1;fill-rule:nonzero;stroke:none;font-family:Liberation Sans;-inkscape-font-specification:LiberationSans-Bold"
           x="0"
           y="0"
           id="tspan3252">D</tspan></text>
</g><g
       id="g3254"
       transform="translate(203.2,102.4)"><text
         transform="matrix(1,0,0,-1,85.2,423.1)"
         id="text3256"><tspan
           style="font-size:10.10000038px;font-variant:normal;font-weight:bold;writing-mode:lr-tb;fill:#000000;fill-opacity:1;fill-rule:nonzero;stroke:none;font-family:Liberation Sans;-inkscape-font-specification:LiberationSans-Bold"
           x="0"
           y="0"
           id="tspan3258">A</tspan></text>
</g><g
       id="g3260"
       transform="translate(203.2,102.4)"><text
         transform="matrix(1,0,0,-1,149.3,423.1)"
         id="text3262"><tspan
           style="font-size:10.10000038px;font-variant:normal;font-weight:normal;writing-mode:lr-tb;fill:#000000;fill-opacity:1;fill-rule:nonzero;stroke:none;font-family:Liberation Sans;-inkscape-font-specification:LiberationSans"
           x="0 3.3633001"
           y="0"
           sodipodi:role="line"
           id="tspan3264">--</tspan></text>
</g><g
       id="g3266"
       transform="translate(203.2,102.4)"><text
         transform="matrix(1,0,0,-1,213.8,423.1)"
         id="text3268"><tspan
           style="font-size:10.10000038px;font-variant:normal;font-weight:normal;writing-mode:lr-tb;fill:#000000;fill-opacity:1;fill-rule:nonzero;stroke:none;font-family:Liberation Sans;-inkscape-font-specification:LiberationSans"
           x="0"
           y="0"
           id="tspan3270">1</tspan></text>
</g><g
       id="g3272"
       transform="translate(203.2,102.4)"><text
         transform="matrix(1,0,0,-1,277.8,423.1)"
         id="text3274"><tspan
           style="font-size:10.10000038px;font-variant:normal;font-weight:normal;writing-mode:lr-tb;fill:#000000;fill-opacity:1;fill-rule:nonzero;stroke:none;font-family:Liberation Sans;-inkscape-font-specification:LiberationSans"
           x="0"
           y="0"
           id="tspan3276">0</tspan></text>
</g><g
       id="g3278"
       transform="translate(203.2,102.4)"><text
         transform="matrix(1,0,0,-1,341.8,423.1)"
         id="text3280"><tspan
           style="font-size:10.10000038px;font-variant:normal;font-weight:normal;writing-mode:lr-tb;fill:#000000;fill-opacity:1;fill-rule:nonzero;stroke:none;font-family:Liberation Sans;-inkscape-font-specification:LiberationSans"
           x="0"
           y="0"
           id="tspan3282">0</tspan></text>
</g><g
       id="g3284"
       transform="translate(203.2,102.4)"><text
         transform="matrix(1,0,0,-1,85.1,410.4)"
         id="text3286"><tspan
           style="font-size:10.10000038px;font-variant:normal;font-weight:bold;writing-mode:lr-tb;fill:#000000;fill-opacity:1;fill-rule:nonzero;stroke:none;font-family:Liberation Sans;-inkscape-font-specification:LiberationSans-Bold"
           x="0"
           y="0"
           id="tspan3288">B</tspan></text>
</g><g
       id="g3290"
       transform="translate(203.2,102.4)"><text
         transform="matrix(1,0,0,-1,149.9,410.4)"
         id="text3292"><tspan
           style="font-size:10.10000038px;font-variant:normal;font-weight:normal;writing-mode:lr-tb;fill:#000000;fill-opacity:1;fill-rule:nonzero;stroke:none;font-family:Liberation Sans;-inkscape-font-specification:LiberationSans"
           x="0"
           y="0"
           id="tspan3294">1</tspan></text>
</g><g
       id="g3296"
       transform="translate(203.2,102.4)"><text
         transform="matrix(1,0,0,-1,213.3,410.4)"
         id="text3298"><tspan
           style="font-size:10.10000038px;font-variant:normal;font-weight:normal;writing-mode:lr-tb;fill:#000000;fill-opacity:1;fill-rule:nonzero;stroke:none;font-family:Liberation Sans;-inkscape-font-specification:LiberationSans"
           x="0 3.3633001"
           y="0"
           sodipodi:role="line"
           id="tspan3300">--</tspan></text>
</g><g
       id="g3302"
       transform="translate(203.2,102.4)"><text
         transform="matrix(1,0,0,-1,277.8,410.4)"
         id="text3304"><tspan
           style="font-size:10.10000038px;font-variant:normal;font-weight:normal;writing-mode:lr-tb;fill:#000000;fill-opacity:1;fill-rule:nonzero;stroke:none;font-family:Liberation Sans;-inkscape-font-specification:LiberationSans"
           x="0"
           y="0"
           id="tspan3306">0</tspan></text>
</g><g
       id="g3308"
       transform="translate(203.2,102.4)"><text
         transform="matrix(1,0,0,-1,341.8,410.4)"
         id="text3310"><tspan
           style="font-size:10.10000038px;font-variant:normal;font-weight:normal;writing-mode:lr-tb;fill:#000000;fill-opacity:1;fill-rule:nonzero;stroke:none;font-family:Liberation Sans;-inkscape-font-specification:LiberationSans"
           x="0"
           y="0"
           id="tspan3312">0</tspan></text>
</g><g
       id="g3314"
       transform="translate(203.2,102.4)"><text
         transform="matrix(1,0,0,-1,85.1,397.6)"
         id="text3316"><tspan
           style="font-size:10.10000038px;font-variant:normal;font-weight:bold;writing-mode:lr-tb;fill:#000000;fill-opacity:1;fill-rule:nonzero;stroke:none;font-family:Liberation Sans;-inkscape-font-specification:LiberationSans-Bold"
           x="0"
           y="0"
           id="tspan3318">C</tspan></text>
</g><g
       id="g3320"
       transform="translate(203.2,102.4)"><text
         transform="matrix(1,0,0,-1,149.9,397.6)"
         id="text3322"><tspan
           style="font-size:10.10000038px;font-variant:normal;font-weight:normal;writing-mode:lr-tb;fill:#000000;fill-opacity:1;fill-rule:nonzero;stroke:none;font-family:Liberation Sans;-inkscape-font-specification:LiberationSans"
           x="0"
           y="0"
           id="tspan3324">0</tspan></text>
</g><g
       id="g3326"
       transform="translate(203.2,102.4)"><text
         transform="matrix(1,0,0,-1,213.8,397.6)"
         id="text3328"><tspan
           style="font-size:10.10000038px;font-variant:normal;font-weight:normal;writing-mode:lr-tb;fill:#000000;fill-opacity:1;fill-rule:nonzero;stroke:none;font-family:Liberation Sans;-inkscape-font-specification:LiberationSans"
           x="0"
           y="0"
           id="tspan3330">0</tspan></text>
</g><g
       id="g3332"
       transform="translate(203.2,102.4)"><text
         transform="matrix(1,0,0,-1,277.2,397.6)"
         id="text3334"><tspan
           style="font-size:10.10000038px;font-variant:normal;font-weight:normal;writing-mode:lr-tb;fill:#000000;fill-opacity:1;fill-rule:nonzero;stroke:none;font-family:Liberation Sans;-inkscape-font-specification:LiberationSans"
           x="0 3.3633001"
           y="0"
           sodipodi:role="line"
           id="tspan3336">--</tspan></text>
</g><g
       id="g3338"
       transform="translate(203.2,102.4)"><text
         transform="matrix(1,0,0,-1,341.8,397.6)"
         id="text3340"><tspan
           style="font-size:10.10000038px;font-variant:normal;font-weight:normal;writing-mode:lr-tb;fill:#000000;fill-opacity:1;fill-rule:nonzero;stroke:none;font-family:Liberation Sans;-inkscape-font-specification:LiberationSans"
           x="0"
           y="0"
           id="tspan3342">1</tspan></text>
</g><g
       id="g3344"
       transform="translate(203.2,102.4)"><text
         transform="matrix(1,0,0,-1,85.1,384.8)"
         id="text3346"><tspan
           style="font-size:10.10000038px;font-variant:normal;font-weight:bold;writing-mode:lr-tb;fill:#000000;fill-opacity:1;fill-rule:nonzero;stroke:none;font-family:Liberation Sans;-inkscape-font-specification:LiberationSans-Bold"
           x="0"
           y="0"
           id="tspan3348">D</tspan></text>
</g><g
       id="g3350"
       transform="translate(203.2,102.4)"><text
         transform="matrix(1,0,0,-1,149.9,384.8)"
         id="text3352"><tspan
           style="font-size:10.10000038px;font-variant:normal;font-weight:normal;writing-mode:lr-tb;fill:#000000;fill-opacity:1;fill-rule:nonzero;stroke:none;font-family:Liberation Sans;-inkscape-font-specification:LiberationSans"
           x="0"
           y="0"
           id="tspan3354">0</tspan></text>
</g><g
       id="g3356"
       transform="translate(203.2,102.4)"><text
         transform="matrix(1,0,0,-1,213.8,384.8)"
         id="text3358"><tspan
           style="font-size:10.10000038px;font-variant:normal;font-weight:normal;writing-mode:lr-tb;fill:#000000;fill-opacity:1;fill-rule:nonzero;stroke:none;font-family:Liberation Sans;-inkscape-font-specification:LiberationSans"
           x="0"
           y="0"
           id="tspan3360">0</tspan></text>
</g><g
       id="g3362"
       transform="translate(203.2,102.4)"><text
         transform="matrix(1,0,0,-1,277.8,384.8)"
         id="text3364"><tspan
           style="font-size:10.10000038px;font-variant:normal;font-weight:normal;writing-mode:lr-tb;fill:#000000;fill-opacity:1;fill-rule:nonzero;stroke:none;font-family:Liberation Sans;-inkscape-font-specification:LiberationSans"
           x="0"
           y="0"
           id="tspan3366">1</tspan></text>
</g><g
       id="g3368"
       transform="translate(203.2,102.4)"><text
         transform="matrix(1,0,0,-1,341.2,384.8)"
         id="text3370"><tspan
           style="font-size:10.10000038px;font-variant:normal;font-weight:normal;writing-mode:lr-tb;fill:#000000;fill-opacity:1;fill-rule:nonzero;stroke:none;font-family:Liberation Sans;-inkscape-font-specification:LiberationSans"
           x="0 3.3633001"
           y="0"
           sodipodi:role="line"
           id="tspan3372">--</tspan></text>
</g></g></svg>